<svg id="main-canvas" width="500" height="100" xmlns="http://www.w3.org/2000/svg" version="1.1" xmlns:xlink="http://www.w3.org/1999/xlink" xmlns:svgjs="http://svgjs.com/svgjs" style="background-color: white; shape-rendering: auto;" viewBox="330 100 400 100"><defs id="SvgjsDefs1002"><script xmlns="http://www.w3.org/1999/xhtml">function $(id) { return document.getElementById(id) }</script></defs><polyline id="SvgjsPolyline1011" points="0,0" fill="none" stroke-linejoin="round" stroke-linecap="round" stroke="black" transform="matrix(1,0,0,1,0,0)"/><polyline id="SvgjsPolyline1012" points="0,0" fill="none" stroke-linejoin="round" stroke-linecap="round" stroke="black" transform="matrix(1,0,0,1,0,0)"/><polyline id="SvgjsPolyline1013" points="0,0" fill="none" stroke-linejoin="round" stroke-linecap="round" stroke="black" transform="matrix(1,0,0,1,0,0)"/><g id="sketchGroup" transform="matrix(1,0,0,1,529,361)"><g id="layer1" transform="matrix(0.774906971302746 0 0 0.774906971302746 143.40638349839816 -34.260045276725236)" separatedTransform="0,0,1,1,143.40638349839816,-34.260045276725236,0.774906971302746,0.774906971302746"><path id="SvgjsPath1071" d="M-423.30 -224.55 C -424.24 -223.62,-425.00 -221.96,-425.00 -220.86 C -425.00 -219.77,-425.50 -217.94,-426.10 -216.81 C -426.87 -215.38,-426.89 -214.10,-426.18 -212.63 C -425.62 -211.46,-424.56 -208.48,-423.83 -206.02 C -421.83 -199.26,-409.82 -198.48,-403.04 -204.66 C -400.03 -207.41,-403.36 -207.96,-410.27 -205.85 C -418.39 -203.37,-419.42 -203.66,-420.73 -208.83 C -421.91 -213.49,-421.17 -213.95,-412.50 -214.00 C -406.17 -214.04,-403.00 -216.46,-403.00 -221.27 C -403.00 -224.87,-420.21 -227.65,-423.30 -224.55 M-407.36 -220.69 C -405.94 -219.28,-408.59 -218.24,-415.25 -217.60 C -421.96 -216.95,-424.23 -218.40,-421.25 -221.43 C -420.35 -222.35,-408.38 -221.71,-407.36 -220.69 " fill-opacity="1" fill="#000000" transform="matrix(1,0,0,1,0,0)" potraced="yes" opacity="1" filter="url(#pen-wiggly)"/><path id="SvgjsPath1092" d="M-399.54 -230.75 C -400.85 -227.34,-399.52 -205.50,-398.00 -205.50 C -396.90 -205.50,-396.43 -206.83,-396.25 -210.50 C -395.67 -222.04,-395.78 -221.87,-388.21 -222.21 C -377.91 -222.66,-378.70 -225.39,-389.25 -225.79 C -396.68 -226.07,-397.00 -226.18,-397.00 -228.48 C -397.00 -231.23,-398.75 -232.80,-399.54 -230.75 " fill-opacity="1" fill="#000000" transform="matrix(1,0,0,1,0,0)" potraced="yes" opacity="1" filter="url(#pen-wiggly)"/><path id="SvgjsPath1090" d="M-375.40 -225.26 C -376.39 -224.28,-376.07 -210.16,-375.05 -209.53 C -373.38 -208.50,-372.00 -212.69,-372.00 -218.83 C -372.00 -224.41,-373.47 -227.19,-375.40 -225.26 " fill-opacity="1" fill="#000000" transform="matrix(1,0,0,1,0,0)" potraced="yes" opacity="1" filter="url(#pen-wiggly)"/><path id="SvgjsPath1091" d="M-375.33 -239.33 C -377.10 -237.57,-375.80 -236.00,-372.56 -236.00 C -368.81 -236.00,-366.92 -237.70,-369.12 -239.10 C -370.76 -240.13,-374.39 -240.27,-375.33 -239.33 " fill-opacity="1" fill="#000000" transform="matrix(1,0,0,1,0,0)" potraced="yes" opacity="1" filter="url(#pen-wiggly)"/><path id="SvgjsPath1089" d="M-361.77 -227.35 C -368.92 -224.38,-366.21 -212.68,-357.32 -208.12 C -351.89 -205.34,-342.00 -207.92,-342.00 -212.12 C -342.00 -214.38,-343.59 -214.55,-345.64 -212.50 C -350.52 -207.62,-362.38 -213.04,-361.80 -219.88 C -361.50 -223.50,-361.50 -223.50,-350.50 -224.00 C -341.61 -224.40,-339.50 -224.79,-339.50 -226.00 C -339.50 -227.51,-358.59 -228.67,-361.77 -227.35 " fill-opacity="1" fill="#000000" transform="matrix(1,0,0,1,0,0)" potraced="yes" opacity="1" filter="url(#pen-wiggly)"/><path id="SvgjsPath1088" d="M-334.36 -231.31 C -336.06 -229.60,-335.03 -210.85,-333.25 -211.19 C -331.82 -211.46,-331.41 -212.91,-331.00 -219.01 C -330.50 -226.50,-330.50 -226.50,-324.39 -226.79 C -317.76 -227.11,-317.04 -225.69,-317.01 -212.25 C -317.00 -209.14,-316.60 -208.00,-315.50 -208.00 C -314.27 -208.00,-314.00 -209.77,-314.00 -217.93 C -314.00 -230.58,-314.48 -231.17,-324.49 -230.91 C -328.47 -230.80,-332.18 -230.99,-332.73 -231.33 C -333.27 -231.67,-334.01 -231.66,-334.36 -231.31 " fill-opacity="1" fill="#000000" transform="matrix(1,0,0,1,0,0)" potraced="yes" opacity="1" filter="url(#pen-wiggly)"/><path id="SvgjsPath1087" d="M-303.63 -261.34 C -304.33 -258.57,-303.46 -227.56,-302.35 -215.64 C -301.69 -208.55,-299.36 -206.00,-293.53 -206.00 C -290.89 -206.00,-291.87 -208.76,-294.88 -209.81 C -298.58 -211.10,-298.76 -212.29,-299.62 -241.25 C -300.29 -263.70,-301.51 -269.80,-303.63 -261.34 " fill-opacity="1" fill="#000000" transform="matrix(1,0,0,1,0,0)" potraced="yes" opacity="1" filter="url(#pen-wiggly)"/><path id="SvgjsPath1072" d="M-274.44 -232.92 C -281.18 -227.00,-282.52 -211.95,-276.53 -209.45 C -268.98 -206.29,-258.00 -208.11,-258.00 -212.51 C -258.00 -214.72,-260.03 -215.34,-261.34 -213.55 C -262.30 -212.24,-263.91 -211.96,-269.03 -212.20 C -275.50 -212.50,-275.50 -212.50,-275.50 -219.67 C -275.50 -227.63,-272.98 -232.00,-268.38 -232.00 C -265.62 -232.00,-264.23 -233.90,-266.12 -235.10 C -268.58 -236.66,-270.86 -236.06,-274.44 -232.92 " fill-opacity="1" fill="#000000" transform="matrix(1,0,0,1,0,0)" potraced="yes" opacity="1" filter="url(#pen-wiggly)"/><path id="SvgjsPath1086" d="M-260.60 -271.46 C -261.68 -267.18,-260.33 -256.64,-256.61 -240.28 C -254.71 -231.90,-252.86 -222.45,-252.49 -219.28 C -251.37 -209.40,-248.66 -206.05,-247.62 -213.25 C -245.62 -227.07,-246.00 -226.31,-240.16 -228.40 C -233.97 -230.62,-233.55 -230.32,-232.54 -223.09 C -231.24 -213.80,-230.75 -212.00,-229.50 -212.00 C -226.82 -212.00,-228.12 -228.03,-231.09 -231.61 C -233.47 -234.48,-243.35 -232.88,-247.54 -228.95 C -249.99 -226.66,-255.82 -249.05,-256.92 -264.92 C -257.51 -273.53,-259.29 -276.69,-260.60 -271.46 " fill-opacity="1" fill="#000000" transform="matrix(1,0,0,1,0,0)" potraced="yes" opacity="1" filter="url(#pen-wiggly)"/><path id="SvgjsPath1085" d="M-225.38 -237.86 C -230.43 -230.66,-221.83 -217.00,-212.26 -217.00 C -205.89 -217.00,-200.94 -222.81,-204.08 -226.60 C -205.91 -228.81,-207.00 -228.25,-207.00 -225.11 C -207.00 -221.91,-208.42 -221.00,-213.33 -221.01 C -216.50 -221.01,-216.50 -221.01,-213.64 -222.90 C -207.26 -227.10,-204.62 -236.15,-209.25 -237.90 C -215.54 -240.28,-223.70 -240.26,-225.38 -237.86 M-210.87 -234.27 C -210.13 -233.53,-210.14 -232.61,-210.90 -231.19 C -215.07 -223.39,-222.89 -224.48,-222.97 -232.87 C -223.00 -236.25,-223.00 -236.25,-217.46 -235.79 C -214.42 -235.54,-211.45 -234.85,-210.87 -234.27 " fill-opacity="1" fill="#000000" transform="matrix(1,0,0,1,0,0)" potraced="yes" opacity="1" filter="url(#pen-wiggly)"/><path id="SvgjsPath1084" d="M-195.99 -231.82 C -195.96 -217.59,-193.00 -213.54,-189.91 -223.53 C -187.17 -232.39,-182.72 -236.00,-174.55 -236.00 C -170.00 -236.00,-170.00 -236.00,-170.00 -226.56 C -170.00 -216.51,-168.95 -212.00,-166.60 -212.00 C -164.25 -212.00,-166.08 -236.99,-168.58 -239.07 C -172.91 -242.66,-185.29 -238.57,-189.70 -232.09 C -191.90 -228.86,-191.90 -228.86,-192.20 -234.67 C -192.44 -239.26,-192.87 -240.55,-194.25 -240.81 C -195.82 -241.11,-196.00 -240.17,-195.99 -231.82 " fill-opacity="1" fill="#000000" transform="matrix(1,0,0,1,0,0)" potraced="yes" opacity="1" filter="url(#pen-wiggly)"/><path id="SvgjsPath1083" d="M-151.60 -254.24 C -157.72 -250.15,-155.87 -217.40,-149.13 -210.67 C -144.15 -205.69,-130.00 -205.56,-130.00 -210.49 C -130.00 -211.41,-131.82 -211.60,-137.02 -211.23 C -148.58 -210.40,-151.00 -214.99,-151.00 -237.68 C -151.00 -251.00,-151.00 -251.00,-139.50 -251.00 C -123.93 -251.00,-124.00 -251.08,-124.00 -235.00 C -124.00 -223.10,-124.02 -223.00,-126.33 -223.00 C -129.58 -223.00,-131.67 -226.96,-129.90 -229.78 C -127.16 -234.18,-136.09 -238.86,-145.80 -238.10 C -146.75 -238.03,-147.01 -236.33,-146.80 -231.78 C -146.41 -223.75,-143.31 -221.20,-137.84 -224.44 C -135.72 -225.69,-134.49 -225.96,-134.24 -225.22 C -132.33 -219.50,-124.31 -216.68,-122.04 -220.93 C -119.92 -224.90,-120.74 -249.68,-123.06 -251.84 C -126.13 -254.70,-148.13 -256.55,-151.60 -254.24 M-137.92 -234.00 C -135.14 -234.00,-135.49 -230.56,-138.46 -228.62 C -141.84 -226.40,-142.86 -226.58,-143.59 -229.50 C -144.44 -232.87,-143.38 -235.36,-141.41 -234.60 C -140.54 -234.27,-138.97 -234.00,-137.92 -234.00 " fill-opacity="1" fill="#000000" transform="matrix(1,0,0,1,0,0)" potraced="yes" opacity="1" filter="url(#pen-wiggly)"/><path id="SvgjsPath1073" d="M-97.83 -239.48 C -100.26 -236.40,-102.32 -227.92,-101.84 -223.00 C -101.43 -218.77,-94.57 -217.26,-90.90 -220.59 C -89.04 -222.27,-89.00 -221.98,-89.00 -207.66 C -89.00 -192.10,-90.94 -189.02,-97.19 -194.68 C -98.60 -195.95,-99.33 -196.07,-100.21 -195.19 C -102.37 -193.03,-97.34 -189.00,-92.48 -189.00 C -85.44 -189.00,-85.31 -189.44,-84.67 -215.00 C -84.35 -227.38,-83.96 -238.40,-83.80 -239.50 C -83.28 -243.00,-95.08 -242.99,-97.83 -239.48 M-88.36 -233.42 C -89.20 -227.24,-92.30 -223.00,-95.97 -223.00 C -99.15 -223.00,-99.32 -227.59,-96.42 -234.75 C -94.03 -240.64,-87.51 -239.56,-88.36 -233.42 " fill-opacity="1" fill="#000000" transform="matrix(1,0,0,1,0,0)" potraced="yes" opacity="1" filter="url(#pen-wiggly)"/><path id="SvgjsPath1074" d="M-80.33 -244.33 C -82.38 -242.29,-78.51 -225.50,-76.00 -225.50 C -74.86 -225.50,-74.43 -227.00,-74.20 -231.75 C -73.87 -238.70,-72.43 -240.02,-71.47 -234.25 C -70.17 -226.42,-68.50 -225.98,-66.21 -232.87 C -64.09 -239.23,-59.91 -238.62,-58.58 -231.75 C -57.33 -225.28,-55.00 -225.34,-55.00 -231.84 C -55.00 -239.07,-62.10 -243.76,-66.44 -239.41 C -68.09 -237.77,-68.29 -237.76,-69.15 -239.31 C -70.67 -242.01,-73.89 -243.34,-75.56 -241.95 C -76.74 -240.97,-77.00 -241.15,-77.00 -242.88 C -77.00 -244.91,-78.92 -245.74,-80.33 -244.33 " fill-opacity="1" fill="#000000" transform="matrix(1,0,0,1,0,0)" potraced="yes" opacity="1" filter="url(#pen-wiggly)"/><path id="SvgjsPath1077" d="M-45.69 -238.01 C -53.59 -234.77,-50.62 -224.00,-41.82 -224.00 C -38.29 -224.00,-38.01 -223.77,-36.99 -219.95 C -35.97 -216.19,-33.71 -213.96,-32.32 -215.35 C -31.99 -215.68,-32.46 -218.58,-33.37 -221.80 C -34.43 -225.60,-34.79 -229.26,-34.39 -232.20 C -33.94 -235.47,-34.14 -236.97,-35.11 -237.57 C -37.08 -238.79,-43.17 -239.04,-45.69 -238.01 M-38.17 -232.68 C -37.79 -230.64,-40.62 -227.00,-42.58 -227.00 C -44.02 -227.00,-47.00 -229.70,-47.00 -231.00 C -47.00 -234.71,-38.85 -236.25,-38.17 -232.68 " fill-opacity="1" fill="#000000" transform="matrix(1,0,0,1,0,0)" potraced="yes" opacity="1" filter="url(#pen-wiggly)"/><path id="SvgjsPath1075" d="M-32.36 -239.31 C -34.48 -237.19,-30.87 -226.00,-28.07 -226.00 C -26.25 -226.00,-25.92 -227.95,-27.36 -230.22 C -28.15 -231.47,-29.11 -233.96,-29.48 -235.74 C -30.18 -239.09,-31.25 -240.42,-32.36 -239.31 " fill-opacity="1" fill="#000000" transform="matrix(1,0,0,1,0,0)" potraced="yes" opacity="1" filter="url(#pen-wiggly)"/><path id="SvgjsPath1076" d="M-37.33 -248.33 C -38.59 -247.08,-38.00 -243.94,-36.40 -243.32 C -34.45 -242.57,-33.07 -244.54,-33.74 -247.11 C -34.23 -248.99,-36.06 -249.61,-37.33 -248.33 " fill-opacity="1" fill="#000000" transform="matrix(1,0,0,1,0,0)" potraced="yes" opacity="1" filter="url(#pen-wiggly)"/><path id="SvgjsPath1078" d="M-22.68 -265.40 C -23.46 -263.36,-22.41 -231.07,-21.49 -228.75 C -19.46 -223.69,-17.71 -227.00,-18.35 -234.65 C -18.71 -238.86,-19.00 -247.86,-19.00 -254.65 C -19.00 -266.75,-20.49 -271.10,-22.68 -265.40 " fill-opacity="1" fill="#000000" transform="matrix(1,0,0,1,0,0)" potraced="yes" opacity="1" filter="url(#pen-wiggly)"/><path id="SvgjsPath1079" d="M-11.24 -227.77 C -11.85 -225.94,-8.36 -222.65,-6.56 -223.34 C -4.53 -224.12,-4.55 -227.61,-6.58 -228.39 C -9.06 -229.34,-10.80 -229.11,-11.24 -227.77 " fill-opacity="1" fill="#000000" transform="matrix(1,0,0,1,0,0)" potraced="yes" opacity="1" filter="url(#pen-wiggly)"/><path id="SvgjsPath1080" d="M8.25 -247.75 C 0.81 -238.43,4.11 -223.00,13.54 -223.00 C 18.68 -223.00,24.21 -228.52,21.04 -230.48 C 20.51 -230.81,19.16 -230.16,18.04 -229.04 C 12.45 -223.44,5.18 -231.44,8.02 -240.06 C 10.08 -246.31,16.52 -246.26,18.00 -239.99 C 18.68 -237.11,21.31 -236.64,21.82 -239.30 C 22.84 -244.59,11.40 -251.71,8.25 -247.75 " fill-opacity="1" fill="#000000" transform="matrix(1,0,0,1,0,0)" potraced="yes" opacity="1" filter="url(#pen-wiggly)"/><path id="SvgjsPath1081" d="M31.12 -242.56 C 28.54 -232.30,29.62 -230.00,37.01 -230.00 C 45.51 -230.00,48.65 -241.88,40.75 -244.13 C 38.41 -244.79,36.07 -245.71,35.55 -246.17 C 33.54 -247.93,32.20 -246.83,31.12 -242.56 M39.64 -241.00 C 40.71 -241.00,41.04 -240.09,40.81 -237.75 C 40.32 -232.63,34.00 -232.19,34.00 -237.27 C 34.00 -241.12,34.77 -242.30,36.78 -241.53 C 37.54 -241.24,38.83 -241.00,39.64 -241.00 " fill-opacity="1" fill="#000000" transform="matrix(1,0,0,1,0,0)" potraced="yes" opacity="1" filter="url(#pen-wiggly)"/><path id="SvgjsPath1082" d="M54.40 -250.55 C 53.11 -249.61,51.98 -249.48,50.75 -250.13 C 48.23 -251.48,47.60 -249.20,48.33 -241.43 C 49.41 -229.81,53.92 -227.41,54.07 -238.37 C 54.18 -246.26,55.46 -248.53,56.88 -243.35 C 58.35 -238.02,60.50 -237.13,62.52 -241.03 C 64.91 -245.66,67.97 -242.17,67.99 -234.77 C 68.00 -231.77,71.16 -225.00,72.55 -225.00 C 74.63 -225.00,75.21 -226.75,73.92 -229.14 C 73.28 -230.34,72.15 -234.24,71.40 -237.80 C 69.31 -247.80,66.29 -251.15,62.64 -247.50 C 60.64 -245.50,60.00 -245.61,60.00 -247.97 C 60.00 -250.79,56.77 -252.28,54.40 -250.55 " fill-opacity="1" fill="#000000" transform="matrix(1,0,0,1,0,0)" potraced="yes" opacity="1" filter="url(#pen-wiggly)"/></g></g><image xlink:href="" id="portal-preview-transition" alt="transition preview for waypoint portal" style="x: 0px; y: 0px; width: 1px; height: 1px; display: none;"/><g id="[[filtered.ink-color-palette-data]]"><g id="0-0-none"/><g id="0-1-none"/><g id="0-2-none"/><g id="1-0-none"/><g id="1-1-none"/><g id="1-2-none"/><g id="2-0-none"/><g id="2-1-none"/><g id="2-2-none"/><g id="3-0-none"/><g id="3-1-none"/><g id="3-2-none"/><g id="4-0-none"/><g id="4-1-none"/><g id="4-2-none"/><g id="5-0-none"/><g id="5-1-none"/><g id="5-2-none"/><g id="6-0-none"/><g id="6-1-none"/><g id="6-2-none"/><g id="7-0-none"/><g id="7-1-none"/><g id="7-2-none"/><g id="8-0-none"/><g id="8-1-none"/><g id="8-2-none"/><g id="9-0-none"/><g id="9-1-none"/><g id="9-2-none"/></g><g id="[[filtered.ink-waypoint-data]]"/><g id="[[filtered.ink-sensitivity-data]]" zoom="1" pan="1"/><filter id="pen-wiggly"><feTurbulence animation="{&quot;baseFrequency&quot;:&quot;{\&quot;attributeName\&quot;:\&quot;baseFrequency\&quot;,\&quot;dur\&quot;:\&quot;9\&quot;,\&quot;values\&quot;:\&quot;0.108 0.092;0.048 0.053;0.1 0.1\&quot;}&quot;}" baseFrequency="0.1 0.1" numOctaves="3" result="2clDB1" seed="0" stitchTiles="noStitch" type="turbulence" filtername="feTurbulence"><animate attributeName="baseFrequency" dur="9" values="0.108 0.092;0.048 0.053;0.1 0.1" attributeType="XML" repeatCount="indefinite"/></feTurbulence><feDisplacementMap in="SourceGraphic" in2="2clDB1" result="1Pf3G7" scale="3" xChannelSelector="R" yChannelSelector="G" filtername="feDisplacementMap"/></filter></svg>